<svg xmlns="http://www.w3.org/2000/svg" viewBox="0 0 184.03 185.59"><defs><style>.cls-1{fill:#fff;}</style></defs><title>instagram-tendina</title><g id="Livello_2" data-name="Livello 2"><g id="Livello_1-2" data-name="Livello 1"><path class="cls-1" d="M144.39.36Q92.19-.34,40,.35C15.93.68.19,17.64.15,41.78Q.09,93.49,0,145.21c0,22.89,15.3,39.31,38.26,40.08,17.8.6,35.64.12,53.46.12v-.21c17.49,0,35,.1,52.46,0,23.21-.16,39.81-17,39.83-40.26q0-51.72,0-103.43C184,17.76,168.1.68,144.39.36Zm23.68,144.28c0,15.18-9.16,24.84-24.47,24.94-29.48.2-59,0-88.45-.13-5.82,0-11.66,0-17.48-.36a22.41,22.41,0,0,1-21.45-22.62c-.1-17.82,0-35.64,0-53.47h-.13q0-26,0-52c0-14.68,8.94-24.65,23.57-24.79q52.47-.49,104.94,0c14.34.14,23.45,10.14,23.47,24.42Q168.11,92.67,168.07,144.64Z"/><path class="cls-1" d="M154.89,42.07c.28,6-5,11.55-11.16,11.68-5.8.12-11.15-5-11.42-10.93s5.11-11.63,11.17-11.71A11.65,11.65,0,0,1,154.89,42.07Z"/><path class="cls-1" d="M92.47,44.91c-26.6-.07-48.32,21.3-48.35,47.57,0,26.53,21.4,48.31,47.6,48.38,26.52.07,48.27-21.34,48.36-47.62C140.17,66.69,118.78,45,92.47,44.91ZM91.8,125c-18-.06-31.92-14.32-31.81-32.67.12-17.66,14.48-31.55,32.54-31.45,17.72.09,31.64,14.38,31.58,32.41A31.79,31.79,0,0,1,91.8,125Z"/></g></g></svg>