<svg xmlns="http://www.w3.org/2000/svg" viewBox="0 0 176.24 116.94"><title>spotify-tendina</title><g id="Livello_2" data-name="Livello 2"><g id="Livello_1-2" data-name="Livello 1"><path d="M141.37,114.48A7.7,7.7,0,0,1,132,116c-1.92-1-3.78-2.19-5.7-3.23a114.25,114.25,0,0,0-31.13-11.26A123,123,0,0,0,77.09,99c-3.67-.21-7.34-.36-9.46-.46a202.11,202.11,0,0,0-24.28,1.62c-6.74.89-13.41,2.12-20,3.61a7.72,7.72,0,0,1-6.77-1.33A7.69,7.69,0,0,1,19.15,89c2.18-.6,4.41-1,6.63-1.47a204.39,204.39,0,0,1,22.28-3.37c4.75-.43,9.51-.67,14.28-.82,4-.12,7.92-.11,11.87.06A145,145,0,0,1,108.94,89a129.13,129.13,0,0,1,29.71,13,10,10,0,0,1,3.47,3A7.75,7.75,0,0,1,141.37,114.48Z"/><path d="M156.66,80.65A9.67,9.67,0,0,1,144.57,83c-1.42-.78-2.78-1.65-4.19-2.44a140.29,140.29,0,0,0-37.93-14.14A174.17,174.17,0,0,0,80.2,62.89a168.85,168.85,0,0,0-21.8-.62,148,148,0,0,0-36.79,5.79,11.25,11.25,0,0,1-5.25.51,9.77,9.77,0,0,1-7.89-8,9.54,9.54,0,0,1,5.64-10.27,44.27,44.27,0,0,1,5.32-1.65,162.85,162.85,0,0,1,25.71-4.8c5.75-.61,11.52-.95,19.46-1,2.24.06,6.65.07,11.05.33a189.45,189.45,0,0,1,30.81,4.3,168.81,168.81,0,0,1,30.63,9.94,136.05,136.05,0,0,1,17,8.82A9.62,9.62,0,0,1,156.66,80.65Z"/><path d="M176,36.71a11.48,11.48,0,0,1-9.26,9.14,11.9,11.9,0,0,1-8.17-1.48c-2.93-1.64-5.87-3.25-8.89-4.7a151.43,151.43,0,0,0-32.2-10.9,189.56,189.56,0,0,0-23.66-3.94c-5.14-.5-10.29-1-15.45-1.18-6.14-.24-12.29-.36-18.42-.19A180.58,180.58,0,0,0,19,29c-2,.51-3.88,1.17-5.87,1.5A11.54,11.54,0,0,1,8.22,8,152.38,152.38,0,0,1,27.08,3.53a209.88,209.88,0,0,1,21-2.62C51.86.62,55.62.5,59.37.34,62,.23,64.7.18,67.37.1c0,0,0-.06,0-.1C73.83.3,80.3.45,86.74.91a232.13,232.13,0,0,1,42.64,7,167.2,167.2,0,0,1,36.05,13.77q2.63,1.39,5.17,2.92A11.53,11.53,0,0,1,176,36.71Z"/></g></g></svg>