<svg xmlns="http://www.w3.org/2000/svg" viewBox="0 0 174.13 184.35"><defs><style>.cls-1{fill:#ffc107;}</style></defs><title>spreaker-tendina</title><g id="Livello_2" data-name="Livello 2"><g id="Livello_1-2" data-name="Livello 1"><path class="cls-1" d="M108.11,184.35C94.88,169.59,82.39,156.2,70.6,142.21c-4.82-5.72-9.17-7.38-16.59-5.3C37.83,141.45,21.33,144.82,5,148.65a5.76,5.76,0,0,1-3.77-.28L64.79,92.6,0,37.65l.51-1Q17,40.11,33.56,43.57c8.31,1.74,16.65,3.38,24.91,5.32,3.35.79,5.53,0,7.79-2.63C78.49,32,90.91,17.81,103.24,3.59A43,43,0,0,0,105.65,0c.81,2.11,1.36,2.94,1.44,3.82,1.78,18.55,3.62,37.1,5.15,55.68.36,4.36,1.88,6.79,6.07,8.48,16.52,6.68,32.89,13.72,49.31,20.64,1.81.76,3.6,1.59,6.51,2.88-2.42,1.13-3.94,1.9-5.51,2.57-16.66,7.22-33.29,14.49-50,21.56-3.62,1.53-5.26,3.44-5.55,7.66C111.7,143.18,109.88,163.05,108.11,184.35Z"/></g></g></svg>